<svg width="121" height="36" viewBox="0 0 121 36" fill="none" xmlns="http://www.w3.org/2000/svg">
<path fill-rule="evenodd" clip-rule="evenodd" d="M0 31.2V4.8C0 2.14903 2.14125 0 4.78261 0H116.217C118.859 0 121 2.14903 121 4.8V31.2C121 33.851 118.859 36 116.217 36H4.78261C2.14125 36 0 33.851 0 31.2ZM0.717391 31.2V4.8C0.717391 2.54669 2.53746 0.72 4.78261 0.72H116.217C118.463 0.72 120.283 2.54669 120.283 4.8V31.2C120.283 33.4534 118.463 35.28 116.217 35.28H4.78261C2.53746 35.28 0.717391 33.4534 0.717391 31.2Z" fill="white" fill-opacity="0.3"/>
</svg>
